<?xml version="1.0" encoding="iso-8859-1"?>
<!-- Generator: Adobe Illustrator 18.1.1, SVG Export Plug-In . SVG Version: 6.00 Build 0)  -->
<svg version="1.1" id="Capa_1" xmlns="http://www.w3.org/2000/svg" xmlns:xlink="http://www.w3.org/1999/xlink" x="0px" y="0px"
	 viewBox="0 0 286.373 286.373" style="enable-background:new 0 0 286.373 286.373;" xml:space="preserve">
<g id="Alien">
	<path style="fill-rule:evenodd;clip-rule:evenodd;" d="M143.187,0C74.106,0,17.898,53.177,17.898,116.339
		c0,67.587,53.8,170.034,125.288,170.034c71.489,0,125.289-102.447,125.289-170.034C268.476,53.177,212.268,0,143.187,0z
		 M143.187,259.526c-51.456,0-98.441-85.912-98.441-143.187c0-49.395,46.986-89.492,98.441-89.492
		c51.449,0,98.441,40.097,98.441,89.492C241.628,173.614,194.636,259.526,143.187,259.526z M65.325,118.799
		c-9.3,9.741,8.957,57.025,21.612,72.87c13.931,17.441,34.634,40.586,42.913,28.856c7.25-10.271,6.536-55.145-13.041-75.494
		C102.812,130.468,74.619,109.056,65.325,118.799z M221.048,118.799c-9.294-9.742-37.486,11.669-51.483,26.232
		c-19.578,20.35-20.292,65.223-13.041,75.494c8.278,11.729,28.982-11.415,42.913-28.856
		C212.092,175.824,230.349,128.54,221.048,118.799z"/>
</g>
<g>
</g>
<g>
</g>
<g>
</g>
<g>
</g>
<g>
</g>
<g>
</g>
<g>
</g>
<g>
</g>
<g>
</g>
<g>
</g>
<g>
</g>
<g>
</g>
<g>
</g>
<g>
</g>
<g>
</g>
</svg>
