<?xml version="1.0" encoding="iso-8859-1"?>
<!-- Generator: Adobe Illustrator 18.1.1, SVG Export Plug-In . SVG Version: 6.00 Build 0)  -->
<svg version="1.1" id="Capa_1" xmlns="http://www.w3.org/2000/svg" xmlns:xlink="http://www.w3.org/1999/xlink" x="0px" y="0px"
	 viewBox="0 0 268.476 268.476" style="enable-background:new 0 0 268.476 268.476;" xml:space="preserve">
<g id="Attachment">
	<path style="fill-rule:evenodd;clip-rule:evenodd;" d="M205.825,161.086V80.543C205.825,33.874,175.717,0,134.231,0
		C92.747,0,62.637,33.874,62.637,80.543l0.014,116.473v4.475c0,7.413,6.009,13.424,13.423,13.424
		c7.413,0,13.424-6.011,13.424-13.424V80.677c0-25.865,13.429-53.829,44.732-53.829s44.76,27.964,44.76,53.829v107.391
		c0,0.989,0.134,1.944,0.356,2.868l-0.356,23.979c0,14.807-12.093,26.714-26.914,26.714c-14.821,0-26.873-12.041-26.873-26.848
		v-53.695l0.092-53.561c0-3.704,2.478-8.949,8.95-8.949c5.911,0,8.948,5.069,8.948,8.949v26.847c0,1.24,0.043,2.368,0.104,3.446
		c-0.027,0.345-0.104,0.676-0.104,1.028v17.898c0,7.414,6.011,13.424,13.424,13.424c7.414,0,13.424-6.01,13.424-13.424v-17.898
		c0-0.425-0.086-0.825-0.125-1.24c0.075-1.016,0.125-2.077,0.125-3.234v-26.847c0-19.385-16.04-35.797-35.796-35.797
		c-19.758,0-35.797,15.616-35.797,35.797l-0.028,12.381c-0.021,0.306-0.092,0.598-0.092,0.909v93.966
		c0,29.608,24.111,53.695,53.748,53.695c29.637,0,53.762-23.953,53.762-53.561L205.825,161.086z"/>
</g>
<g>
</g>
<g>
</g>
<g>
</g>
<g>
</g>
<g>
</g>
<g>
</g>
<g>
</g>
<g>
</g>
<g>
</g>
<g>
</g>
<g>
</g>
<g>
</g>
<g>
</g>
<g>
</g>
<g>
</g>
</svg>
