<?xml version="1.0" encoding="iso-8859-1"?>
<!-- Generator: Adobe Illustrator 18.1.1, SVG Export Plug-In . SVG Version: 6.00 Build 0)  -->
<svg version="1.1" id="Capa_1" xmlns="http://www.w3.org/2000/svg" xmlns:xlink="http://www.w3.org/1999/xlink" x="0px" y="0px"
	 viewBox="0 0 286.459 286.459" style="enable-background:new 0 0 286.459 286.459;" xml:space="preserve">
<g id="Audiotape__x2F__Cassette">
	<path style="fill-rule:evenodd;clip-rule:evenodd;" d="M134.28,67.161h26.848c12.752,0,17.115,1.044,26.848-8.949l17.898-17.898
		H89.534l17.899,17.898C117.162,68.205,121.528,67.161,134.28,67.161z M257.821,40.313l-25.101,0L196.924,76.11
		c-4.923,5.055-14.096,8.949-26.849,8.949H125.33c-12.753,0-21.927-3.894-26.848-8.949L62.685,40.313l-34.048,0
		C12.822,40.313,0,53.479,0,69.718v147.022c0,16.238,12.822,29.405,28.636,29.405h229.184c15.816,0,28.638-13.166,28.638-29.405
		V69.718C286.459,53.479,273.636,40.313,257.821,40.313z M67.159,192.45c-22.241,0-40.27-18.03-40.27-40.272
		c0-22.241,18.03-40.271,40.27-40.271c22.242,0,40.273,18.03,40.273,40.271C107.433,174.42,89.401,192.45,67.159,192.45z
		 M219.218,192.362c-22.244,0-40.27-18.017-40.27-40.25s18.027-40.249,40.27-40.249c22.244,0,40.271,18.017,40.271,40.249
		S241.462,192.362,219.218,192.362z M219.225,129.927c-12.319,0-22.316,10.004-22.316,22.332c0,12.329,9.997,22.333,22.316,22.333
		c12.32,0,22.315-10.004,22.315-22.333C241.539,139.931,231.545,129.927,219.225,129.927z M67.159,129.805
		c-12.355,0-22.372,10.017-22.372,22.373c0,12.357,10.017,22.373,22.372,22.373c12.357,0,22.374-10.016,22.374-22.373
		C89.534,139.822,79.516,129.805,67.159,129.805z"/>
</g>
<g>
</g>
<g>
</g>
<g>
</g>
<g>
</g>
<g>
</g>
<g>
</g>
<g>
</g>
<g>
</g>
<g>
</g>
<g>
</g>
<g>
</g>
<g>
</g>
<g>
</g>
<g>
</g>
<g>
</g>
</svg>
