<?xml version="1.0" encoding="iso-8859-1"?>
<!-- Generator: Adobe Illustrator 18.1.1, SVG Export Plug-In . SVG Version: 6.00 Build 0)  -->
<svg version="1.1" id="Capa_1" xmlns="http://www.w3.org/2000/svg" xmlns:xlink="http://www.w3.org/1999/xlink" x="0px" y="0px"
	 viewBox="0 0 268.476 268.476" style="enable-background:new 0 0 268.476 268.476;" xml:space="preserve">
<g id="Album">
	<path style="fill-rule:evenodd;clip-rule:evenodd;" d="M210.024,23.257C190.621,9.955,170.2,0,155.435,0l-17.251,80.742
		c9.698,0.707,18.689,3.944,26.276,9.121L210.024,23.257z M98.441,134.239c0,19.769,16.027,35.797,35.797,35.797
		c19.771,0,35.797-16.027,35.797-35.797c0-19.77-16.026-35.797-35.797-35.797C114.469,98.442,98.441,114.469,98.441,134.239z
		 M134.238,125.289c4.943,0,8.95,4.007,8.95,8.949c0,4.942-4.007,8.949-8.95,8.949c-4.942,0-8.949-4.006-8.949-8.949
		C125.289,129.296,129.296,125.289,134.238,125.289z M80.544,134.239c0-27.253,20.321-49.709,46.627-53.177L116.492,1.097
		C50.754,9.79,0,66.126,0,134.239c0,28.136,8.68,54.002,23.473,75.571l66.358-45.394C83.974,155.814,80.544,145.429,80.544,134.239z
		 M245.005,58.239l-66.57,45.539c5.979,8.658,9.499,19.143,9.499,30.461c0,29.655-24.04,53.695-53.696,53.695
		c-11.297,0-21.766-3.506-30.415-9.465L58.454,244.79c21.568,14.792,47.648,23.686,75.784,23.686
		c74.144,0,134.238-60.095,134.238-134.238C268.476,106.102,259.796,79.807,245.005,58.239z"/>
</g>
<g>
</g>
<g>
</g>
<g>
</g>
<g>
</g>
<g>
</g>
<g>
</g>
<g>
</g>
<g>
</g>
<g>
</g>
<g>
</g>
<g>
</g>
<g>
</g>
<g>
</g>
<g>
</g>
<g>
</g>
</svg>
