<?xml version="1.0" encoding="iso-8859-1"?>
<!-- Generator: Adobe Illustrator 18.1.1, SVG Export Plug-In . SVG Version: 6.00 Build 0)  -->
<svg version="1.1" id="Capa_1" xmlns="http://www.w3.org/2000/svg" xmlns:xlink="http://www.w3.org/1999/xlink" x="0px" y="0px"
	 viewBox="0 0 259.625 259.625" style="enable-background:new 0 0 259.625 259.625;" xml:space="preserve">
<g id="Reverb__x2F__Reverberator">
	<path style="fill-rule:evenodd;clip-rule:evenodd;" d="M255.521,3.913c-0.014-0.014-0.022-0.031-0.036-0.045
		c-0.555-0.556-1.165-1.021-1.786-1.459c-0.008-0.006-0.015-0.013-0.023-0.019c-2.755-1.931-6.054-2.677-9.262-2.292H95.475
		c-3.941-0.472-8.046,0.746-11.071,3.77L3.899,84.375c-2.867,2.866-4.105,6.704-3.831,10.452v150.176
		c-0.155,2.111,0.15,4.241,0.992,6.22c1.99,4.922,6.797,8.402,12.431,8.402h152.136c4.66,0,8.76-2.379,11.167-5.984l76.814-76.814
		c3.606-2.406,5.985-6.507,5.985-11.168V13.523C259.595,9.75,258.027,6.352,255.521,3.913z M107.459,107.489h44.746v44.746h-44.746
		V107.489z M179.052,99.248l53.695-53.696v106.683h-53.695V99.248z M159.769,80.641h-52.31V26.947h106.004L159.769,80.641z
		 M80.612,80.641H45.522l35.089-35.09V80.641z M26.916,107.489h53.696v52.309l-53.696,53.697V107.489z M99.217,179.083h52.987
		v53.695H45.522L99.217,179.083z M179.052,179.083h34.412l-34.412,34.411V179.083z"/>
</g>
<g>
</g>
<g>
</g>
<g>
</g>
<g>
</g>
<g>
</g>
<g>
</g>
<g>
</g>
<g>
</g>
<g>
</g>
<g>
</g>
<g>
</g>
<g>
</g>
<g>
</g>
<g>
</g>
<g>
</g>
</svg>
