<?xml version="1.0" encoding="iso-8859-1"?>
<!-- Generator: Adobe Illustrator 18.1.1, SVG Export Plug-In . SVG Version: 6.00 Build 0)  -->
<svg version="1.1" id="Capa_1" xmlns="http://www.w3.org/2000/svg" xmlns:xlink="http://www.w3.org/1999/xlink" x="0px" y="0px"
	 viewBox="0 0 268.556 268.556" style="enable-background:new 0 0 268.556 268.556;" xml:space="preserve">
<g id="Sound_System_2">
	<path style="fill-rule:evenodd;clip-rule:evenodd;" d="M249.912,202.386c24.69-42.005,24.652-94.16-0.044-136.173l3.426-3.423
		c13.14-13.156,13.14-34.501,0-47.666c-13.148-13.156-34.471-13.156-47.613,0l-3.405,3.408
		c-41.951-24.71-94.039-24.717-135.999,0.021l-3.418-3.429c-13.141-13.156-34.463-13.156-47.611,0
		c-13.142,13.164-13.142,34.51,0,47.666l3.432,3.43c-24.697,42.012-24.719,94.153-0.037,136.15l-3.396,3.399
		c-13.142,13.158-13.142,34.503,0,47.667c13.149,13.155,34.471,13.155,47.611,0l3.389-3.401
		c41.959,24.702,94.042,24.695,136.006-0.029l3.426,3.43c13.142,13.155,34.465,13.155,47.613,0c13.14-13.164,13.14-34.509,0-47.667
		L249.912,202.386z M40.542,26.975c7.413,0,13.424,6.01,13.424,13.424c0,7.414-6.011,13.424-13.424,13.424
		c-7.414,0-13.424-6.009-13.424-13.424C27.119,32.985,33.129,26.975,40.542,26.975z M40.542,241.756
		c-7.414,0-13.424-6.01-13.424-13.424c0-7.414,6.01-13.424,13.424-13.424c7.413,0,13.424,6.009,13.424,13.424
		C53.966,235.746,47.956,241.756,40.542,241.756z M134.551,223.862c-49.417,0-89.481-40.048-89.481-89.442
		c0-49.393,40.064-89.441,89.481-89.441c49.416,0,89.481,40.048,89.481,89.441C224.032,183.814,183.967,223.862,134.551,223.862z
		 M228.476,241.756c-7.414,0-13.424-6.01-13.424-13.424c0-7.414,6.01-13.424,13.424-13.424c7.414,0,13.424,6.009,13.424,13.424
		C241.899,235.746,235.89,241.756,228.476,241.756z M228.476,53.822c-7.414,0-13.424-6.009-13.424-13.424
		c0-7.414,6.01-13.424,13.424-13.424c7.414,0,13.424,6.01,13.424,13.424C241.899,47.813,235.89,53.822,228.476,53.822z
		 M134.559,98.431c-19.766,0-35.792,16.044-35.792,35.833c0,19.788,16.027,35.831,35.792,35.831
		c19.765,0,35.792-16.043,35.792-35.831C170.352,114.475,154.325,98.431,134.559,98.431z"/>
</g>
<g>
</g>
<g>
</g>
<g>
</g>
<g>
</g>
<g>
</g>
<g>
</g>
<g>
</g>
<g>
</g>
<g>
</g>
<g>
</g>
<g>
</g>
<g>
</g>
<g>
</g>
<g>
</g>
<g>
</g>
</svg>
