<?xml version="1.0" encoding="iso-8859-1"?>
<!-- Generator: Adobe Illustrator 18.1.1, SVG Export Plug-In . SVG Version: 6.00 Build 0)  -->
<svg version="1.1" id="Capa_1" xmlns="http://www.w3.org/2000/svg" xmlns:xlink="http://www.w3.org/1999/xlink" x="0px" y="0px"
	 viewBox="0 0 286.699 286.699" style="enable-background:new 0 0 286.699 286.699;" xml:space="preserve">
<g id="Drums">
	<path style="fill-rule:evenodd;clip-rule:evenodd;" d="M209.046,108.191l-2.131,1.085c-0.706,0.413-1.453,0.764-2.228,1.051
		c-8.236,3.76-10.838,8.255-10.893,8.255c-0.222,0.749-0.111,0.315-0.457,1.029c-4.582,9.181-12.124,16.415-21.259,20.357
		c-5.299,2.289-10.905,3.445-16.634,3.445c-14.52,0-27.736-7.458-35.487-19.411c-1.564,2.437-3.295,4.754-5.343,6.821
		c-8.027,8.123-18.71,12.59-30.059,12.59c-11.363,0-22.034-4.475-30.06-12.59c-5.094-5.169-8.553-11.478-10.534-18.291
		c-18.779,6.324-30.267,14.607-30.267,23.71c0,19.803,53.936,35.853,120.464,35.853c66.529,0,120.464-16.05,120.464-35.853
		C254.621,124.871,236.78,114.759,209.046,108.191z M134.157,186.437c-14.532,0-31.983-0.938-49.437-3.179l49.437,88.939
		l49.436-88.939C166.142,185.499,148.689,186.437,134.157,186.437z M142.351,286.699c40.8-0.812,75.968-7.661,95.593-17.59
		l-40.386-81.727L142.351,286.699z M249.777,260.978c3.101-3.177,4.844-6.532,4.844-10.005v-90.067
		c-10.975,8.207-27.418,13.907-45.45,17.892L249.777,260.978z M30.372,269.109c19.624,9.929,54.792,16.778,95.593,17.59
		l-55.208-99.317L30.372,269.109z M13.694,160.906v90.067c0,3.473,1.744,6.828,4.845,10.005l40.606-82.18
		C41.112,174.813,24.668,169.113,13.694,160.906z M104.595,120.676c4.955-5.013,7.557-11.42,8.083-17.968
		c0,0,0.056-10.553,11.847-22.478l55.026-55.747c5.55-5.601,5.537-14.677,0-20.278c-5.522-5.603-14.503-5.61-20.039,0l-56.481,57.21
		c-10.81,10.938-20.498,10.384-20.498,10.384l-0.041,0.112c-6.546,0.483-12.968,3.131-17.979,8.2
		c-11.071,11.206-11.071,29.37,0,40.566C75.573,131.874,93.524,131.874,104.595,120.676z M271.865,45.036
		c-3.072-7.268-11.39-10.679-18.6-7.569l-66.322,33.737c-14.062,6.065-22.85,1.892-22.85,1.892l-0.083,0.09
		c-6.242-2.03-13.175-2.002-19.694,0.82c-14.408,6.204-21.107,23.06-14.961,37.632c6.118,14.565,22.782,21.344,37.174,15.139
		c6.437-2.779,11.225-7.744,14.144-13.612c0,0,3.931-9.782,19.264-16.387l64.44-32.918
		C271.589,60.756,274.938,52.332,271.865,45.036z"/>
</g>
<g>
</g>
<g>
</g>
<g>
</g>
<g>
</g>
<g>
</g>
<g>
</g>
<g>
</g>
<g>
</g>
<g>
</g>
<g>
</g>
<g>
</g>
<g>
</g>
<g>
</g>
<g>
</g>
<g>
</g>
</svg>
