<?xml version="1.0" encoding="iso-8859-1"?>
<!-- Generator: Adobe Illustrator 18.1.1, SVG Export Plug-In . SVG Version: 6.00 Build 0)  -->
<svg version="1.1" id="Capa_1" xmlns="http://www.w3.org/2000/svg" xmlns:xlink="http://www.w3.org/1999/xlink" x="0px" y="0px"
	 viewBox="0 0 286.323 286.323" style="enable-background:new 0 0 286.323 286.323;" xml:space="preserve">
<g id="Headphones_2">
	<path style="fill-rule:evenodd;clip-rule:evenodd;" d="M77.445,22.709c-0.62-0.627-1.283-1.179-1.916-1.767
		c-2.477-2.237-4.039-3.481-4.039-3.481l0.015,0.169c-7.429-5.415-16.853-8.705-26.758-8.705C17.646,8.924,0,28.829,0,53.67v62.644
		c0,24.839,17.925,44.746,44.746,44.746c11.064,0,11.722-5.77,17.898-8.949c0,0,8.949-5.322,8.949,8.949V277.4h26.848v-53.695
		c9.885,0,17.898-8.014,17.898-17.898v-98.442C116.339,66.732,90.414,34.851,77.445,22.709z M175.756,172.316
		c3.294,8.913,3.227,15.592,3.227,15.592v17.898c0,9.885,8.014,17.898,17.899,17.898V277.4h26.848v-53.695
		c9.885,0,17.898-8.014,17.898-17.898v-17.898c0,0,0.011-6.722,3.266-15.606c-10.715,4.249-22.362,6.657-34.589,6.657
		C198.093,178.959,186.46,176.555,175.756,172.316z M210.301,8.923c-41.99,0-76.022,34.057-76.022,76.061
		s34.032,76.061,76.022,76.061c41.989,0,76.022-34.057,76.022-76.061S252.291,8.923,210.301,8.923z"/>
</g>
<g>
</g>
<g>
</g>
<g>
</g>
<g>
</g>
<g>
</g>
<g>
</g>
<g>
</g>
<g>
</g>
<g>
</g>
<g>
</g>
<g>
</g>
<g>
</g>
<g>
</g>
<g>
</g>
<g>
</g>
</svg>
