<?xml version="1.0" encoding="iso-8859-1"?>
<!-- Generator: Adobe Illustrator 18.1.1, SVG Export Plug-In . SVG Version: 6.00 Build 0)  -->
<svg version="1.1" id="Capa_1" xmlns="http://www.w3.org/2000/svg" xmlns:xlink="http://www.w3.org/1999/xlink" x="0px" y="0px"
	 viewBox="0 0 286.432 286.432" style="enable-background:new 0 0 286.432 286.432;" xml:space="preserve">
<g id="Guitar">
	<g>
		<path style="fill-rule:evenodd;clip-rule:evenodd;" d="M282.237,24.661l-20.261-20.23c-5.58-5.578-14.641-5.571-20.234,0.013
			l-26.973,32.767c-4.614,4.608-5.188,11.49-2.196,16.922l-50.996,50.946c-17.522-9.733-50.802-10.374-69.734,8.516
			c-4.741,4.734-8.265,10.158-10.977,15.875c-0.322,0.531-0.7,0.879-0.938,1.528c-2.711,7.567-8.347,12.67-16.415,12.67
			c-0.28,0.007-0.685,0.273-1.034,0.426c-15.173,1.927-29.856,8.433-41.504,20.062C-6.99,192.072-6.99,237.326,20.963,265.229
			c27.966,27.937,73.299,27.93,101.265,0.013c11.633-11.636,18.15-26.295,20.066-41.451c0.167-0.349,0.433-0.738,0.433-1.039
			c0-8.056,5.104-13.669,12.682-16.376c0.671-0.225,0.993-0.637,1.552-0.937c5.719-2.722,11.159-6.219,15.899-10.953
			c18.919-18.91,17.157-53.257,8.53-69.625l50.996-50.945c5.44,3.002,12.334,2.415,16.948-2.192l32.902-26.855
			C287.817,39.286,287.845,30.245,282.237,24.661z M125.342,179.334c-9.855,0-17.851-8.03-17.851-17.941
			c0-9.91,7.996-17.941,17.851-17.941c9.856,0,17.852,8.03,17.852,17.941C143.194,171.304,135.198,179.334,125.342,179.334z"/>
	</g>
</g>
<g>
</g>
<g>
</g>
<g>
</g>
<g>
</g>
<g>
</g>
<g>
</g>
<g>
</g>
<g>
</g>
<g>
</g>
<g>
</g>
<g>
</g>
<g>
</g>
<g>
</g>
<g>
</g>
<g>
</g>
</svg>
