<?xml version="1.0" encoding="iso-8859-1"?>
<!-- Generator: Adobe Illustrator 18.1.1, SVG Export Plug-In . SVG Version: 6.00 Build 0)  -->
<svg version="1.1" id="Capa_1" xmlns="http://www.w3.org/2000/svg" xmlns:xlink="http://www.w3.org/1999/xlink" x="0px" y="0px"
	 viewBox="0 0 277.425 277.425" style="enable-background:new 0 0 277.425 277.425;" xml:space="preserve">
<g id="Beatport">
	<path style="fill-rule:evenodd;clip-rule:evenodd;" d="M266.142,136.6c-8.759-38.884-44.033-105.278-123.225-105.278
		c-0.695,0-1.361,0.112-2.028,0.217c-0.666-0.104-1.33-0.216-2.023-0.216c-79.47,0-115.358,63.17-120.335,101.096
		C7.617,136.956,0,147.11,0,158.933v58.113c0,16.047,14.01,29.057,31.292,29.057H54.76c4.325,0,7.823-3.249,7.823-7.265V137.141
		c0-4.016-3.498-7.265-7.823-7.265h-9.87c3.523-12.281,10.836-29.112,24.414-43.323c3.158,3.908,7.131,7.414,11.239,7.414
		c9.282,0,24.908-17.817,58.183-17.817c33.277,0,48.873,17.817,58.156,17.817c4.1,0,8.068-3.493,11.223-7.392
		c14.461,14.158,23.291,30.934,27.808,43.302h-13.248c-4.324,0-7.824,3.249-7.824,7.265v101.697c0,4.016,3.5,7.265,7.824,7.265
		h23.468c17.281,0,31.292-13.01,31.292-29.057v-58.113C277.425,149.954,273.034,141.93,266.142,136.6z M173.886,169.418
		l-21.857,21.803v-56.983c0-7.414-6.024-13.424-13.456-13.424c-7.432,0-13.457,6.01-13.457,13.424v56.983l-21.856-21.803
		c-5.205-5.194-13.647-5.194-18.853,0c-5.207,5.193-5.207,13.614,0,18.807l42.881,42.779c2.398,3.694,6.545,6.15,11.285,6.15
		c4.739,0,8.887-2.456,11.284-6.15l42.881-42.779c5.207-5.193,5.207-13.614,0-18.807
		C187.532,164.224,179.092,164.224,173.886,169.418z"/>
</g>
<g>
</g>
<g>
</g>
<g>
</g>
<g>
</g>
<g>
</g>
<g>
</g>
<g>
</g>
<g>
</g>
<g>
</g>
<g>
</g>
<g>
</g>
<g>
</g>
<g>
</g>
<g>
</g>
<g>
</g>
</svg>
