<?xml version="1.0" encoding="iso-8859-1"?>
<!-- Generator: Adobe Illustrator 18.1.1, SVG Export Plug-In . SVG Version: 6.00 Build 0)  -->
<svg version="1.1" id="Capa_1" xmlns="http://www.w3.org/2000/svg" xmlns:xlink="http://www.w3.org/1999/xlink" x="0px" y="0px"
	 viewBox="0 0 286.374 286.374" style="enable-background:new 0 0 286.374 286.374;" xml:space="preserve">
<g id="Soundcloud">
	<path style="fill-rule:evenodd;clip-rule:evenodd;" d="M49.22,125.289c-7.413,0-13.423,22.037-13.423,49.22
		c0,27.184,6.01,49.221,13.423,49.221c7.414,0,13.425-22.037,13.425-49.221C62.644,147.326,56.634,125.289,49.22,125.289z
		 M85.017,98.441c-7.413,0-13.423,28.047-13.423,62.644c0,34.598,6.01,62.644,13.423,62.644c7.414,0,13.424-28.047,13.424-62.644
		C98.441,126.488,92.431,98.441,85.017,98.441z M237.154,125.289c-1.514,0-3.006,0.093-4.486,0.226c0-0.076,0.011-0.15,0.011-0.226
		c0-34.6-28.045-62.645-62.645-62.645c-9.622,0-18.701,2.233-26.848,6.109V223.73h93.967c27.179,0,49.22-22.032,49.22-49.221
		C286.374,147.321,264.333,125.289,237.154,125.289z M120.813,80.543c-7.413,0-13.423,32.054-13.423,71.594
		s6.01,71.593,13.423,71.593c7.414,0,13.424-32.053,13.424-71.593S128.228,80.543,120.813,80.543z M13.423,161.085
		C6.01,161.085,0,175.108,0,192.408c0,17.299,6.01,31.322,13.423,31.322c7.414,0,13.424-14.023,13.424-31.322
		C26.847,175.108,20.837,161.085,13.423,161.085z"/>
</g>
<g>
</g>
<g>
</g>
<g>
</g>
<g>
</g>
<g>
</g>
<g>
</g>
<g>
</g>
<g>
</g>
<g>
</g>
<g>
</g>
<g>
</g>
<g>
</g>
<g>
</g>
<g>
</g>
<g>
</g>
</svg>
