<?xml version="1.0" encoding="iso-8859-1"?>
<!-- Generator: Adobe Illustrator 18.1.1, SVG Export Plug-In . SVG Version: 6.00 Build 0)  -->
<svg version="1.1" id="Capa_1" xmlns="http://www.w3.org/2000/svg" xmlns:xlink="http://www.w3.org/1999/xlink" x="0px" y="0px"
	 viewBox="0 0 250.577 250.577" style="enable-background:new 0 0 250.577 250.577;" xml:space="preserve">
<g id="Keys">
	<path style="fill-rule:evenodd;clip-rule:evenodd;" d="M232.68,4.475H17.899C4.057,4.475,0,8.941,0,22.373v205.831
		c0,13.432,4.337,17.899,17.899,17.899H232.68c13.561,0,17.898-4.186,17.898-17.899V22.373
		C250.577,9.221,245.681,4.475,232.68,4.475z M80.543,219.256H26.847V31.323h35.797v89.492h0.001v4.475
		c0,7.414,6.01,13.424,13.423,13.424h4.475V219.256z M98.441,219.256v-80.543h4.475c7.414,0,13.424-6.01,13.424-13.424V31.323
		h17.898v89.492h0.001v0v4.475c0,7.414,6.01,13.424,13.424,13.424h4.475v80.543H98.441z M223.73,219.256h-53.695v-80.543h4.475
		c7.414,0,13.424-6.01,13.424-13.424v-4.475v0l0,0V31.323h35.796V219.256z"/>
</g>
<g>
</g>
<g>
</g>
<g>
</g>
<g>
</g>
<g>
</g>
<g>
</g>
<g>
</g>
<g>
</g>
<g>
</g>
<g>
</g>
<g>
</g>
<g>
</g>
<g>
</g>
<g>
</g>
<g>
</g>
</svg>
