<?xml version="1.0" encoding="iso-8859-1"?>
<!-- Generator: Adobe Illustrator 18.1.1, SVG Export Plug-In . SVG Version: 6.00 Build 0)  -->
<svg version="1.1" id="Capa_1" xmlns="http://www.w3.org/2000/svg" xmlns:xlink="http://www.w3.org/1999/xlink" x="0px" y="0px"
	 viewBox="0 0 268.476 268.476" style="enable-background:new 0 0 268.476 268.476;" xml:space="preserve">
<g id="Synth__x2F__Synthesizer__x2F__Electronic">
	<path style="fill-rule:evenodd;clip-rule:evenodd;" d="M253.56,13.424H14.915C6.678,13.424,0,20.102,0,28.339v211.797
		c0,8.237,6.677,14.916,14.915,14.916H253.56c8.238,0,14.916-6.678,14.916-14.916V28.339
		C268.476,20.102,261.798,13.424,253.56,13.424z M192.366,31.406c7.391,0,13.383,5.991,13.383,13.381
		c0,7.391-5.992,13.382-13.383,13.382c-7.39,0-13.382-5.991-13.382-13.382C178.984,37.397,184.976,31.406,192.366,31.406z
		 M192.366,76.152c7.391,0,13.383,5.991,13.383,13.381c0,7.391-5.992,13.383-13.383,13.383c-7.39,0-13.382-5.991-13.382-13.383
		C178.984,82.143,184.976,76.152,192.366,76.152z M62.643,228.205H26.848v-89.492h26.848v49.22h0.411
		c0.925,2.601,3.383,4.475,6.301,4.475h2.236V228.205z M40.364,111.958c-12.355,0-22.373-10.016-22.373-22.372
		c0-12.356,10.018-22.373,22.373-22.373c12.357,0,22.374,10.017,22.374,22.373C62.737,101.942,52.72,111.958,40.364,111.958z
		 M107.389,228.205H71.594v-35.797h2.237c2.919,0,5.377-1.874,6.301-4.475h0.411v-49.22h17.898v49.22h0.411
		c0.925,2.601,3.383,4.475,6.301,4.475h2.236V228.205z M93.967,102.916c-7.46,0-13.509-5.991-13.509-13.382
		c0-7.391,6.049-13.382,13.509-13.382s13.508,5.991,13.508,13.382C107.475,96.925,101.427,102.916,93.967,102.916z M152.136,228.205
		H116.34v-35.797h2.238c2.917,0,5.376-1.874,6.3-4.475h0.411v-49.22h26.847V228.205z M145.796,58.169H33.188
		c-8.392,0-15.196-5.991-15.196-13.382c0-7.391,6.804-13.381,15.196-13.381h112.608c8.392,0,15.194,5.991,15.194,13.381
		C160.99,52.178,154.188,58.169,145.796,58.169z M161.086,228.205v-89.492h26.848v49.22h0.412c0.924,2.601,3.382,4.475,6.3,4.475
		h2.237v35.797H161.086z M241.629,228.205h-35.797v-35.797h2.237c2.918,0,5.377-1.874,6.301-4.475h0.411v-49.22h26.848V228.205z
		 M237.112,102.916c-7.391,0-13.382-5.991-13.382-13.383c0-7.39,5.991-13.381,13.382-13.381c7.39,0,13.382,5.991,13.382,13.381
		C250.495,96.924,244.503,102.916,237.112,102.916z M237.112,58.169c-7.391,0-13.382-5.991-13.382-13.382
		c0-7.391,5.991-13.381,13.382-13.381c7.39,0,13.382,5.991,13.382,13.381C250.495,52.178,244.503,58.169,237.112,58.169z"/>
</g>
<g>
</g>
<g>
</g>
<g>
</g>
<g>
</g>
<g>
</g>
<g>
</g>
<g>
</g>
<g>
</g>
<g>
</g>
<g>
</g>
<g>
</g>
<g>
</g>
<g>
</g>
<g>
</g>
<g>
</g>
</svg>
