<?xml version="1.0" encoding="iso-8859-1"?>
<!-- Generator: Adobe Illustrator 18.1.1, SVG Export Plug-In . SVG Version: 6.00 Build 0)  -->
<svg version="1.1" id="Capa_1" xmlns="http://www.w3.org/2000/svg" xmlns:xlink="http://www.w3.org/1999/xlink" x="0px" y="0px"
	 viewBox="0 0 268.521 268.521" style="enable-background:new 0 0 268.521 268.521;" xml:space="preserve">
<g id="fasten_2">
	<path style="fill-rule:evenodd;clip-rule:evenodd;" d="M256.072,31.182l-18.752-18.751c-18.934-18.933-59.233-15.773-81.31,6.304
		L124.72,50.025c-14.87,14.87-21.027,38.08-17.763,57.386c-19.233-3.223-42.225,2.993-57.016,17.784l-31.187,31.187
		c-22.004,22.005-24.937,62.389-6.238,81.088l18.712,18.712c18.699,18.699,59.084,15.767,81.088-6.237l31.187-31.188
		c14.796-14.796,20.837-37.974,17.609-57.208c19.302,3.256,42.499-2.901,57.365-17.767l31.292-31.29
		C271.845,90.416,274.615,49.726,256.072,31.182z M118.553,206.283l-18.712,18.713c-20.55,20.549-41.315,21.059-59.257,3.119
		c-17.66-17.662-17.43-38.707,3.119-59.257l18.712-18.713c16.444-16.444,33.256-20.255,48.756-11.332L78.01,171.976
		c-5.167,5.167-5.167,13.545,0,18.713c5.168,5.167,13.545,5.167,18.712,0l33.129-33.129
		C138.594,172.943,134.949,189.887,118.553,206.283z M224.759,99.999l-18.773,18.775c-16.665,16.665-33.462,20.188-48.785,11.437
		l33.066-33.065c5.167-5.167,5.167-13.545,0-18.713c-5.168-5.167-13.546-5.167-18.713,0l-33.094,33.094
		c-8.757-15.275-5.436-32.3,11.272-49.008l18.774-18.775c20.306-20.305,41.158-21.423,59.418-3.163
		C245.901,58.56,245.064,79.694,224.759,99.999z"/>
</g>
<g>
</g>
<g>
</g>
<g>
</g>
<g>
</g>
<g>
</g>
<g>
</g>
<g>
</g>
<g>
</g>
<g>
</g>
<g>
</g>
<g>
</g>
<g>
</g>
<g>
</g>
<g>
</g>
<g>
</g>
</svg>
