<?xml version="1.0" encoding="iso-8859-1"?>
<!-- Generator: Adobe Illustrator 18.1.1, SVG Export Plug-In . SVG Version: 6.00 Build 0)  -->
<svg version="1.1" id="Capa_1" xmlns="http://www.w3.org/2000/svg" xmlns:xlink="http://www.w3.org/1999/xlink" x="0px" y="0px"
	 viewBox="0 0 268.476 268.476" style="enable-background:new 0 0 268.476 268.476;" xml:space="preserve">
<g id="Playlist_2">
	<path style="fill-rule:evenodd;clip-rule:evenodd;" d="M228.205,71.593l-44.745,8.949v134.238l-0.444-0.296
		c-2.924,15.318-21.619,27.143-44.302,27.143c-24.713,0-44.746-14.023-44.746-31.322c0-17.299,20.033-31.323,44.746-31.323
		c6.368,0,12.414,0.945,17.898,2.624V53.695c0-9.584,1.241-21.443,17.898-26.848l71.039-14.758C244.229,5.257,238.62,0,231.561,0
		H36.916c-8.038,0-14.542,6.671-14.542,14.914V253.56c0,8.244,6.505,14.916,14.542,14.916h194.645
		c8.038,0,14.542-6.672,14.542-14.916V44.609C246.103,64.04,228.205,71.593,228.205,71.593z M58.17,44.746h62.644
		c4.943,0,8.949,4.006,8.949,8.949c0,4.943-4.007,8.949-8.949,8.949H58.17c-4.942,0-8.949-4.006-8.949-8.949
		C49.221,48.753,53.228,44.746,58.17,44.746z M58.17,89.492h62.644c4.943,0,8.949,4.007,8.949,8.949
		c0,4.943-4.007,8.949-8.949,8.949H58.17c-4.942,0-8.949-4.006-8.949-8.949C49.221,93.499,53.228,89.492,58.17,89.492z
		 M49.221,143.188c0-4.943,4.007-8.949,8.949-8.949h62.644c4.943,0,8.949,4.007,8.949,8.949c0,4.942-4.007,8.949-8.949,8.949H58.17
		C53.228,152.136,49.221,148.13,49.221,143.188z"/>
</g>
<g>
</g>
<g>
</g>
<g>
</g>
<g>
</g>
<g>
</g>
<g>
</g>
<g>
</g>
<g>
</g>
<g>
</g>
<g>
</g>
<g>
</g>
<g>
</g>
<g>
</g>
<g>
</g>
<g>
</g>
</svg>
