<?xml version="1.0" encoding="iso-8859-1"?>
<!-- Generator: Adobe Illustrator 18.1.1, SVG Export Plug-In . SVG Version: 6.00 Build 0)  -->
<svg version="1.1" id="Capa_1" xmlns="http://www.w3.org/2000/svg" xmlns:xlink="http://www.w3.org/1999/xlink" x="0px" y="0px"
	 viewBox="0 0 286.375 286.375" style="enable-background:new 0 0 286.375 286.375;" xml:space="preserve">
<g id="Analog__x2F__Warm">
	<path style="fill-rule:evenodd;clip-rule:evenodd;" d="M165.926,29.925c-9.167-1.373-9.315-11.467-9.315-11.467v-5.034
		c0-6.855-5.164-12.45-11.801-13.26C144.286,0.06,143.745,0,143.187,0c-0.558,0-1.1,0.06-1.624,0.164
		c-6.637,0.811-11.801,6.405-11.801,13.26v5.034c0,0-0.148,10.094-9.315,11.467C84.546,34.154,58.17,49.727,58.17,85.909v114.548
		c0,7.918,6.913,14.324,15.459,14.324h139.116c8.547,0,15.461-6.407,15.461-14.324V85.909
		C228.205,49.727,201.829,34.154,165.926,29.925z M102.916,178.985c0,4.946-4.003,8.949-8.95,8.949
		c-4.946,0-8.949-4.003-8.949-8.949V89.492c0-4.946,4.003-8.949,8.949-8.949c4.946,0,8.95,4.003,8.95,8.949V178.985z M67.119,232.68
		c0,9.884,8.014,17.898,17.898,17.898v22.373c0,7.411,6.013,13.424,13.424,13.424c7.411,0,13.424-6.013,13.424-13.424v-22.373
		h17.898v22.373c0,7.411,6.013,13.424,13.424,13.424c7.411,0,13.424-6.013,13.424-13.424v-22.373h17.898v22.373
		c0,7.411,6.013,13.424,13.424,13.424c7.411,0,13.424-6.013,13.424-13.424v-22.373c9.885,0,17.898-8.014,17.898-17.898v-8.949
		H67.119V232.68z"/>
</g>
<g>
</g>
<g>
</g>
<g>
</g>
<g>
</g>
<g>
</g>
<g>
</g>
<g>
</g>
<g>
</g>
<g>
</g>
<g>
</g>
<g>
</g>
<g>
</g>
<g>
</g>
<g>
</g>
<g>
</g>
</svg>
