<?xml version="1.0" encoding="iso-8859-1"?>
<!-- Generator: Adobe Illustrator 18.1.1, SVG Export Plug-In . SVG Version: 6.00 Build 0)  -->
<svg version="1.1" id="Capa_1" xmlns="http://www.w3.org/2000/svg" xmlns:xlink="http://www.w3.org/1999/xlink" x="0px" y="0px"
	 viewBox="0 0 250.577 250.577" style="enable-background:new 0 0 250.577 250.577;" xml:space="preserve">
<g id="iTunes">
	<path style="fill-rule:evenodd;clip-rule:evenodd;" d="M125.289,0C56.098,0,0,56.098,0,125.289
		c0,69.191,56.098,125.289,125.289,125.289c69.19,0,125.289-56.098,125.289-125.289C250.577,56.098,194.479,0,125.289,0z
		 M178.985,161.086c0,9.885-12.02,17.898-26.848,17.898c-14.827,0-26.848-8.014-26.848-17.898c0-9.885,12.02-17.899,26.848-17.899
		c3.143,0,6.147,0.379,8.95,1.04V89.493c0,0-48.913,5.904-62.644,17.898v71.594c0,9.885-12.02,17.898-26.848,17.898
		c-14.827,0-26.848-8.013-26.848-17.898c0-9.885,12.02-17.898,26.848-17.898c3.143,0,6.147,0.379,8.95,1.04V89.493
		c0,0-0.501-17.153,6.488-21.446c34.899-22.316,91.836-23.449,91.953-23.301V161.086z"/>
</g>
<g>
</g>
<g>
</g>
<g>
</g>
<g>
</g>
<g>
</g>
<g>
</g>
<g>
</g>
<g>
</g>
<g>
</g>
<g>
</g>
<g>
</g>
<g>
</g>
<g>
</g>
<g>
</g>
<g>
</g>
</svg>
