<?xml version="1.0" encoding="iso-8859-1"?>
<!-- Generator: Adobe Illustrator 18.1.1, SVG Export Plug-In . SVG Version: 6.00 Build 0)  -->
<svg version="1.1" id="Capa_1" xmlns="http://www.w3.org/2000/svg" xmlns:xlink="http://www.w3.org/1999/xlink" x="0px" y="0px"
	 viewBox="0 0 286.375 286.375" style="enable-background:new 0 0 286.375 286.375;" xml:space="preserve">
<g id="Boombox">
	<path style="fill-rule:evenodd;clip-rule:evenodd;" d="M58.169,152.137c-7.414,0-13.424,6.01-13.424,13.424
		c0,7.413,6.01,13.424,13.424,13.424c7.414,0,13.425-6.011,13.425-13.424C71.594,158.147,65.583,152.137,58.169,152.137z
		 M228.204,152.137c-7.414,0-13.424,6.01-13.424,13.424c0,7.413,6.01,13.424,13.424,13.424s13.424-6.011,13.424-13.424
		C241.629,158.147,235.619,152.137,228.204,152.137z M259.527,89.492H214.78V62.644c0-7.908-9.991-17.899-17.898-17.899H89.492
		c-7.908,0-17.898,9.99-17.898,17.899v26.847H26.848C11.031,89.492,0,100.523,0,116.34v98.441c0,15.816,11.031,26.848,26.848,26.848
		h232.679c15.816,0,26.848-11.032,26.848-26.848V116.34C286.375,100.523,275.343,89.492,259.527,89.492z M58.261,196.943
		c-17.283,0-31.292-14.01-31.292-31.292s14.01-31.291,31.292-31.291c17.282,0,31.292,14.01,31.292,31.291
		S75.544,196.943,58.261,196.943z M161.086,196.883h-35.797c-4.942,0-8.948-4.007-8.948-8.949c0-4.942,4.006-8.949,8.948-8.949
		h35.797c4.942,0,8.949,4.007,8.949,8.949C170.035,192.876,166.028,196.883,161.086,196.883z M156.611,161.085h-26.848
		c-7.413,0-13.423-6.01-13.423-13.424c0-7.413,6.01-13.424,13.423-13.424h26.848c7.413,0,13.423,6.01,13.423,13.424
		C170.035,155.076,164.025,161.085,156.611,161.085z M187.934,89.492H98.441V71.593h89.492V89.492z M228.296,196.943
		c-17.282,0-31.292-14.01-31.292-31.292s14.01-31.291,31.292-31.291s31.292,14.01,31.292,31.291S245.578,196.943,228.296,196.943z"
		/>
</g>
<g>
</g>
<g>
</g>
<g>
</g>
<g>
</g>
<g>
</g>
<g>
</g>
<g>
</g>
<g>
</g>
<g>
</g>
<g>
</g>
<g>
</g>
<g>
</g>
<g>
</g>
<g>
</g>
<g>
</g>
</svg>
