<?xml version="1.0" encoding="iso-8859-1"?>
<!-- Generator: Adobe Illustrator 18.1.1, SVG Export Plug-In . SVG Version: 6.00 Build 0)  -->
<svg version="1.1" id="Capa_1" xmlns="http://www.w3.org/2000/svg" xmlns:xlink="http://www.w3.org/1999/xlink" x="0px" y="0px"
	 viewBox="0 0 286.374 286.374" style="enable-background:new 0 0 286.374 286.374;" xml:space="preserve">
<g id="Panorama">
	<path style="fill-rule:evenodd;clip-rule:evenodd;" d="M57.274,78.133c-7.908,0-14.319,6.472-14.319,14.456v101.195
		c0,7.984,6.411,14.456,14.319,14.456c7.909,0,14.319-6.472,14.319-14.456V92.589C71.593,84.605,65.183,78.133,57.274,78.133z
		 M192.436,94.207c-1.104,0-2.565-0.192-3.742,0.958l-45.507,36.696L97.68,95.165c-1.177-1.15-2.637-0.958-3.741-0.958
		c-4.414,0-4.395,5.595-4.395,7.013v84.154c0,1.198-0.019,7.013,4.395,7.013c1.104,0,2.564,0.191,3.741-0.958l45.507-36.696
		l45.507,36.696c1.177,1.15,2.637,0.958,3.742,0.958c4.413,0,4.395-5.814,4.395-7.013V101.22
		C196.831,99.802,196.849,94.207,192.436,94.207z M13.424,49.221C6.009,49.221,0,55.23,0,62.645V223.73
		c0,7.414,6.009,13.424,13.424,13.424c7.413,0,13.423-6.009,13.423-13.424V62.645C26.847,55.23,20.837,49.221,13.424,49.221z
		 M228.204,76.069c-7.413,0-13.423,6.01-13.423,13.424v107.39c0,7.413,6.01,13.423,13.423,13.423c7.414,0,13.424-6.01,13.424-13.423
		V89.492C241.628,82.079,235.618,76.069,228.204,76.069z M272.95,49.221c-7.414,0-13.424,6.009-13.424,13.424V223.73
		c0,7.414,6.01,13.424,13.424,13.424c7.414,0,13.424-6.009,13.424-13.424V62.645C286.374,55.23,280.364,49.221,272.95,49.221z"/>
</g>
<g>
</g>
<g>
</g>
<g>
</g>
<g>
</g>
<g>
</g>
<g>
</g>
<g>
</g>
<g>
</g>
<g>
</g>
<g>
</g>
<g>
</g>
<g>
</g>
<g>
</g>
<g>
</g>
<g>
</g>
</svg>
