<?xml version="1.0" encoding="iso-8859-1"?>
<!-- Generator: Adobe Illustrator 18.1.1, SVG Export Plug-In . SVG Version: 6.00 Build 0)  -->
<svg version="1.1" id="Capa_1" xmlns="http://www.w3.org/2000/svg" xmlns:xlink="http://www.w3.org/1999/xlink" x="0px" y="0px"
	 viewBox="0 0 277.425 277.425" style="enable-background:new 0 0 277.425 277.425;" xml:space="preserve">
<g id="Sample">
	<path style="fill-rule:evenodd;clip-rule:evenodd;" d="M246.103,125.289h-40.271v-13.424c0-7.413-6.01-13.424-13.424-13.424
		c-7.414,0-13.424,6.01-13.424,13.424v4.475c0,3.954-4.967,8.949-8.949,8.949c-3.981,0-8.949-4.996-8.949-8.949V76.069
		c0-7.414-6.011-13.424-13.424-13.424c-7.414,0-13.424,6.01-13.424,13.424v4.475c0,3.955-4.967,17.898-8.948,17.898
		c-3.982,0-8.949-13.944-8.949-17.898V31.323c0-7.414-6.011-13.423-13.425-13.423c-7.414,0-13.424,6.009-13.424,13.423v22.373
		h-0.375c-0.926,4.944-3.943,8.949-13.546,8.949c-8.748,0-11.595-4.005-12.51-8.949h-0.416v-5.018c-0.019-1.33,0-2.658,0-3.931
		C62.645,36.838,60.104,0,32.316,0c-7.963,0-14.418,6.411-14.418,14.318v248.788c0,7.908,6.455,14.319,14.418,14.319
		c27.788,0,30.328-36.837,30.328-44.745c0-1.273-0.019-2.6,0-3.931v-5.019h0.416c0.915-4.944,3.761-8.95,12.51-8.95
		c8.865,0,12.276,4.029,13.594,8.95h0.327v22.373c0,7.414,6.01,13.424,13.424,13.424c7.414,0,13.425-6.01,13.425-13.424v-49.22
		c0-3.954,4.967-17.899,8.949-17.899c3.981,0,8.948,13.945,8.948,17.899v4.474c0,7.414,6.01,13.424,13.424,13.424
		c7.414,0,13.424-6.01,13.424-13.424v-40.271c0-3.955,4.968-8.949,8.949-8.949c3.982,0,8.949,4.995,8.949,8.949v4.474
		c0,7.414,6.01,13.424,13.424,13.424c7.414,0,13.424-6.01,13.424-13.424v-13.424h40.271c7.414,0,13.424-6.01,13.424-13.424
		S253.517,125.289,246.103,125.289z"/>
</g>
<g>
</g>
<g>
</g>
<g>
</g>
<g>
</g>
<g>
</g>
<g>
</g>
<g>
</g>
<g>
</g>
<g>
</g>
<g>
</g>
<g>
</g>
<g>
</g>
<g>
</g>
<g>
</g>
<g>
</g>
</svg>
