<?xml version="1.0" encoding="iso-8859-1"?>
<!-- Generator: Adobe Illustrator 18.1.1, SVG Export Plug-In . SVG Version: 6.00 Build 0)  -->
<svg version="1.1" id="Capa_1" xmlns="http://www.w3.org/2000/svg" xmlns:xlink="http://www.w3.org/1999/xlink" x="0px" y="0px"
	 viewBox="0 0 259.526 259.526" style="enable-background:new 0 0 259.526 259.526;" xml:space="preserve">
<g id="EQ__x2F__Equalizer">
	<path style="fill-rule:evenodd;clip-rule:evenodd;" d="M22.373,8.949C10.017,8.949,0,18.966,0,31.322v196.882
		c0,12.356,10.017,22.373,22.373,22.373c12.356,0,22.372-10.017,22.372-22.373V31.322C44.745,18.966,34.729,8.949,22.373,8.949z
		 M76.068,53.695c-12.356,0-22.372,10.017-22.372,22.374v152.136c0,12.356,10.017,22.373,22.372,22.373
		c12.356,0,22.374-10.017,22.374-22.373V76.069C98.441,63.712,88.424,53.695,76.068,53.695z M129.763,134.238
		c-12.356,0-22.373,10.017-22.373,22.373v71.594c0,12.356,10.017,22.373,22.373,22.373s22.373-10.017,22.373-22.373v-71.594
		C152.136,144.254,142.119,134.238,129.763,134.238z M183.458,80.542c-12.356,0-22.372,10.017-22.372,22.373v125.289
		c0,12.356,10.015,22.373,22.372,22.373c12.357,0,22.373-10.017,22.373-22.373V102.916
		C205.831,90.559,195.815,80.542,183.458,80.542z M237.153,8.949c-12.357,0-22.373,10.017-22.373,22.374v196.882
		c0,12.356,10.017,22.373,22.373,22.373s22.373-10.017,22.373-22.373V31.322C259.526,18.966,249.51,8.949,237.153,8.949z"/>
</g>
<g>
</g>
<g>
</g>
<g>
</g>
<g>
</g>
<g>
</g>
<g>
</g>
<g>
</g>
<g>
</g>
<g>
</g>
<g>
</g>
<g>
</g>
<g>
</g>
<g>
</g>
<g>
</g>
<g>
</g>
</svg>
