<?xml version="1.0" encoding="iso-8859-1"?>
<!-- Generator: Adobe Illustrator 18.1.1, SVG Export Plug-In . SVG Version: 6.00 Build 0)  -->
<svg version="1.1" id="Capa_1" xmlns="http://www.w3.org/2000/svg" xmlns:xlink="http://www.w3.org/1999/xlink" x="0px" y="0px"
	 viewBox="0 0 286.375 286.375" style="enable-background:new 0 0 286.375 286.375;" xml:space="preserve">
<g id="sound_system">
	<path style="fill-rule:evenodd;clip-rule:evenodd;" d="M224.849,0H61.526C44.845,0,31.323,13.496,31.323,30.144V256.23
		c0,16.648,13.522,30.145,30.203,30.145h163.322c16.681,0,30.204-13.497,30.204-30.145V30.144C255.052,13.496,241.53,0,224.849,0z
		 M143.188,35.753c12.355,0,22.373,10.044,22.373,22.433c0,12.389-10.018,22.434-22.373,22.434
		c-12.357,0-22.373-10.045-22.373-22.434C120.815,45.798,130.832,35.753,143.188,35.753z M143.188,250.643
		c-37.069,0-67.118-30.06-67.118-67.144c0-37.082,30.05-67.143,67.118-67.143c37.068,0,67.12,30.061,67.12,67.143
		C210.307,220.583,180.256,250.643,143.188,250.643z M143.188,152.091c-17.299,0-31.322,14.06-31.322,31.406
		s14.024,31.407,31.322,31.407c17.298,0,31.322-14.061,31.322-31.407S160.486,152.091,143.188,152.091z"/>
</g>
<g>
</g>
<g>
</g>
<g>
</g>
<g>
</g>
<g>
</g>
<g>
</g>
<g>
</g>
<g>
</g>
<g>
</g>
<g>
</g>
<g>
</g>
<g>
</g>
<g>
</g>
<g>
</g>
<g>
</g>
</svg>
