<?xml version="1.0" encoding="iso-8859-1"?>
<!-- Generator: Adobe Illustrator 18.1.1, SVG Export Plug-In . SVG Version: 6.00 Build 0)  -->
<svg version="1.1" id="Capa_1" xmlns="http://www.w3.org/2000/svg" xmlns:xlink="http://www.w3.org/1999/xlink" x="0px" y="0px"
	 viewBox="0 0 286.375 286.375" style="enable-background:new 0 0 286.375 286.375;" xml:space="preserve">
<g id="iPod">
	<path style="fill-rule:evenodd;clip-rule:evenodd;" d="M143.188,170.157c-17.322,0-31.364,14.011-31.364,31.293
		c0,17.282,14.042,31.292,31.364,31.292s31.364-14.01,31.364-31.292C174.552,184.168,160.51,170.157,143.188,170.157z M216.698,0
		H69.676c-16.24,0-29.405,12.821-29.405,28.637v229.1c0,15.815,13.165,28.638,29.405,28.638h147.022
		c16.24,0,29.405-12.822,29.405-28.638v-229.1C246.104,12.821,232.938,0,216.698,0z M143.188,259.414
		c-32.17,0-58.25-26.018-58.25-58.112c0-32.095,26.08-58.112,58.25-58.112c32.169,0,58.248,26.018,58.248,58.112
		C201.437,233.396,175.358,259.414,143.188,259.414z M219.257,98.442c0,7.908-9.778,17.898-17.898,17.898H85.019
		c-8.12,0-17.898-9.99-17.898-17.898V44.747c0-7.908,9.779-17.898,17.898-17.898h116.34c8.12,0,17.898,9.991,17.898,17.898V98.442z
		 M192.409,44.747H93.968c-4.943,0-8.949,4.007-8.949,8.949c0,4.943,4.006,8.949,8.949,8.949h98.441
		c4.942,0,8.949-4.007,8.949-8.949C201.358,48.754,197.351,44.747,192.409,44.747z M147.662,80.544H93.968
		c-4.943,0-8.949,4.006-8.949,8.949c0,4.942,4.006,8.949,8.949,8.949h53.695c4.943,0,8.949-4.007,8.949-8.949
		C156.612,84.551,152.605,80.544,147.662,80.544z"/>
</g>
<g>
</g>
<g>
</g>
<g>
</g>
<g>
</g>
<g>
</g>
<g>
</g>
<g>
</g>
<g>
</g>
<g>
</g>
<g>
</g>
<g>
</g>
<g>
</g>
<g>
</g>
<g>
</g>
<g>
</g>
</svg>
