<?xml version="1.0" encoding="iso-8859-1"?>
<!-- Generator: Adobe Illustrator 18.1.1, SVG Export Plug-In . SVG Version: 6.00 Build 0)  -->
<svg version="1.1" id="Capa_1" xmlns="http://www.w3.org/2000/svg" xmlns:xlink="http://www.w3.org/1999/xlink" x="0px" y="0px"
	 viewBox="0 0 286.374 286.374" style="enable-background:new 0 0 286.374 286.374;" xml:space="preserve">
<g id="Artist__x2F__User_2">
	<path style="fill-rule:evenodd;clip-rule:evenodd;" d="M73.383,81.214c0.075,0.042,0.131-0.022,0.199,0.014
		c16.713,9.012,29.061,14.765,42.758,17.213V71.593c0,0,30.088,10.739,53.695,17.899c22.641,6.904,55.237,17.898,71.594,17.898
		c0,0,10.844,0,17.898,0c0,0-12.16-7.232-20.631-23.499C228.164,35.907,185.458,0,134.238,0C74.928,0,26.847,48.08,26.847,107.39
		v17.899l0.149-0.52v42.287c0,64.406,60.422,119.319,107.242,119.319c46.436,0,107.391-51.934,107.391-116.34v-44.746
		c-64.236-10.628-107.391-26.848-107.391-26.848v17.898c-27.604,0-52.668-7.468-71.594-17.898
		c-4.299-3.272-13.901-6.461-8.949-17.899C59.055,71.047,69.469,79.011,73.383,81.214z M183.448,125.235
		c7.487,0,13.545,6.028,13.545,13.477c0,7.449-6.058,13.477-13.545,13.477c-7.486,0-13.546-6.028-13.546-13.477
		C169.902,131.263,175.961,125.235,183.448,125.235z M84.975,125.235c7.412,0,13.41,6.028,13.41,13.477
		c0,7.449-5.998,13.477-13.41,13.477c-7.413,0-13.411-6.028-13.411-13.477C71.564,131.263,77.562,125.235,84.975,125.235z
		 M205.832,196.882c0,0-25.586,44.747-71.594,44.747c-45.994,0-71.594-44.747-71.594-44.747H205.832z"/>
</g>
<g>
</g>
<g>
</g>
<g>
</g>
<g>
</g>
<g>
</g>
<g>
</g>
<g>
</g>
<g>
</g>
<g>
</g>
<g>
</g>
<g>
</g>
<g>
</g>
<g>
</g>
<g>
</g>
<g>
</g>
</svg>
