<?xml version="1.0" encoding="iso-8859-1"?>
<!-- Generator: Adobe Illustrator 18.1.1, SVG Export Plug-In . SVG Version: 6.00 Build 0)  -->
<svg version="1.1" id="Capa_1" xmlns="http://www.w3.org/2000/svg" xmlns:xlink="http://www.w3.org/1999/xlink" x="0px" y="0px"
	 viewBox="0 0 286.374 286.374" style="enable-background:new 0 0 286.374 286.374;" xml:space="preserve">
<g id="Artist__x2F__User">
	<path style="fill-rule:evenodd;clip-rule:evenodd;" d="M254.874,257.736c-0.888-46.116-7.06-53.457-39.6-72.418
		c-13.533-7.887-23.461-6.88-41.937,9.815l-0.013,0.015l-10.324,9.327c-0.368,0.335-11.498,10.305-19.814,10.305
		c-8.315,0-19.446-9.97-19.815-10.305l-10.323-9.327l-0.013-0.015c-18.475-16.696-28.403-17.703-41.935-9.815
		c-32.541,18.961-38.713,26.302-39.6,72.418c-0.015,0.322-0.04,14.04-0.015,14.319c0.424,7.523,6.364,14.319,13.82,14.319h195.764
		c7.455,0,13.395-6.796,13.82-14.319C254.915,271.776,254.889,258.058,254.874,257.736z M143.187,170.145
		c36.247,0,67.12-32.623,67.12-70.894v-18.18c-31.542-7.81-67.12-24.356-67.12-24.356v14.179c-16.373,0-29.967-4.32-41.202-10.488
		c-6.582-3.988-10.514-8.136-8.927-11.887c2.674-6.342,9.019-3.545,16.15,0c0.289,0.145,0.525,0.062,0.8,0.132
		c5.9,3.004,12.323,5.572,19.756,6.902V34.975l13.424,7.561c11.313,5.262,43.22,17.488,66.66,23.733
		C207.448,30.074,177.94,0,143.187,0c-22.744,0-43.366,12.876-55.583,31.916c0,0-4.379,7.63-6.489,12.892
		c-3.186,8.141-5.047,16.933-5.047,26.086v28.358C76.068,137.522,106.954,170.145,143.187,170.145z M183.458,116.339
		c0,0-12.913,26.846-40.271,26.846c-27.345,0-40.271-26.846-40.271-26.846H183.458z"/>
</g>
<g>
</g>
<g>
</g>
<g>
</g>
<g>
</g>
<g>
</g>
<g>
</g>
<g>
</g>
<g>
</g>
<g>
</g>
<g>
</g>
<g>
</g>
<g>
</g>
<g>
</g>
<g>
</g>
<g>
</g>
</svg>
