<?xml version="1.0" encoding="iso-8859-1"?>
<!-- Generator: Adobe Illustrator 18.1.1, SVG Export Plug-In . SVG Version: 6.00 Build 0)  -->
<svg version="1.1" id="Capa_1" xmlns="http://www.w3.org/2000/svg" xmlns:xlink="http://www.w3.org/1999/xlink" x="0px" y="0px"
	 viewBox="0 0 268.042 268.042" style="enable-background:new 0 0 268.042 268.042;" xml:space="preserve">
<g id="Album__x2F__Vinyl">
	<path style="fill-rule:evenodd;clip-rule:evenodd;" d="M228.79,39.253c-52.337-52.336-137.2-52.336-189.538,0
		c-52.336,52.344-52.336,137.194,0,189.531c52.337,52.343,137.2,52.343,189.538,0C281.126,176.447,281.126,91.597,228.79,39.253z
		 M112.626,245.075c-0.827,3.183-3.692,5.297-6.834,5.297c-0.578,0-1.171-0.07-1.763-0.221
		c-20.664-5.331-39.607-16.167-54.79-31.341c-15.168-15.168-26.009-34.118-31.328-54.803c-0.964-3.775,1.31-7.619,5.071-8.59
		c3.775-0.978,7.605,1.302,8.597,5.077c4.683,18.24,14.244,34.958,27.637,48.341c13.39,13.39,30.114,22.959,48.34,27.65
		C111.331,237.456,113.591,241.307,112.626,245.075z M119.68,217.735c-0.827,3.183-3.692,5.297-6.834,5.297
		c-0.578,0-1.171-0.069-1.748-0.221c-15.83-4.07-30.322-12.35-41.909-23.95c-11.613-11.607-19.893-26.106-23.971-41.922
		c-0.965-3.768,1.31-7.618,5.071-8.59c3.828-0.992,7.617,1.309,8.595,5.077c3.445,13.369,10.456,25.631,20.279,35.461
		c9.809,9.816,22.071,16.82,35.432,20.258C118.37,210.116,120.644,213.96,119.68,217.735z M178.443,178.445
		c-24.478,24.477-64.13,24.487-88.609,0c-24.478-24.478-24.478-64.14,0-88.618c24.478-24.469,64.131-24.478,88.609,0
		C202.921,114.305,202.921,153.976,178.443,178.445z M217.741,119.709c-0.578,0.151-1.171,0.22-1.75,0.22
		c-3.154,0-6.02-2.114-6.832-5.304c-3.431-13.363-10.444-25.624-20.279-35.469c-9.837-9.835-22.098-16.848-35.448-20.279
		c-3.775-0.971-6.047-4.815-5.084-8.588c0.979-3.768,4.877-6.062,8.582-5.077c15.816,4.064,30.31,12.351,41.923,23.97
		c11.626,11.627,19.92,26.129,23.971,41.943C223.789,114.893,221.515,118.737,217.741,119.709z M245.074,112.634
		c-0.593,0.15-1.184,0.22-1.764,0.22c-3.141,0-6.006-2.115-6.833-5.297c-4.698-18.24-14.245-34.957-27.636-48.348
		c-13.404-13.405-30.142-22.967-48.383-27.651c-3.775-0.97-6.048-4.815-5.082-8.59c0.963-3.761,4.862-6.062,8.582-5.075
		c20.705,5.317,39.676,16.153,54.857,31.341c15.168,15.168,26.011,34.125,31.328,54.81
		C251.107,107.819,248.835,111.662,245.074,112.634z M102.366,102.367c-17.519,17.516-17.519,45.879,0,63.409
		c17.515,17.534,45.893,17.534,63.409,0c17.519-17.531,17.519-45.894,0-63.409C148.259,84.833,119.882,84.833,102.366,102.367z
		 M134.241,143.192c-4.942,0-8.949-4.007-8.949-8.949c0-4.942,4.006-8.949,8.949-8.949c4.943,0,8.949,4.007,8.949,8.949
		C143.191,139.185,139.184,143.192,134.241,143.192z"/>
</g>
<g>
</g>
<g>
</g>
<g>
</g>
<g>
</g>
<g>
</g>
<g>
</g>
<g>
</g>
<g>
</g>
<g>
</g>
<g>
</g>
<g>
</g>
<g>
</g>
<g>
</g>
<g>
</g>
<g>
</g>
</svg>
